<svg xmlns="http://www.w3.org/2000/svg" width="980" height="298" viewBox="0 0 980 298">
<style><![CDATA[
text{font-family:Arial,Helvetica,sans-serif;fill:#17202a} .title{font-size:24px;font-weight:700}
.sub{font-size:13px;fill:#5d6d7e}.label{font-size:13px}.value{font-size:13px;font-weight:700}
.axis{stroke:#d6dbdf;stroke-width:1}.bar{fill:#2878b5}.bar2{fill:#d1495b}.bg{fill:#f7f9fb}
]]></style>
<rect width="980" height="298" fill="white"/>
<text class="title" x="28" y="34">GCA coverage funnel on the 143-case paper set</text>
<text class="sub" x="28" y="58">The primary release covers 28 cases; most remaining headroom is CVE/GHSA ingestion and release gating, not model scoring.</text>
<line class="axis" x1="310" y1="78" x2="860" y2="78"/>
<text class="label" x="28" y="111">Primary released sidecar</text>
<rect class="bg" x="310" y="92" width="550" height="22" rx="3"/>
<rect x="310" y="92" width="107.7" height="22" rx="3" fill="#2878b5"/>
<text class="value" x="425.7" y="108">28 / 143</text>
<text class="label" x="28" y="145">Release current review queue</text>
<rect class="bg" x="310" y="126" width="550" height="22" rx="3"/>
<rect x="310" y="126" width="203.8" height="22" rx="3" fill="#3c9d8f"/>
<text class="value" x="521.8" y="142">53 / 143</text>
<text class="label" x="28" y="179">Release noise/singleton candidates</text>
<rect class="bg" x="310" y="160" width="550" height="22" rx="3"/>
<rect x="310" y="160" width="280.8" height="22" rx="3" fill="#2878b5"/>
<text class="value" x="598.8" y="176">73 / 143</text>
<text class="label" x="28" y="213">All CVE IDs ingested</text>
<rect class="bg" x="310" y="194" width="550" height="22" rx="3"/>
<rect x="310" y="194" width="523.1" height="22" rx="3" fill="#3c9d8f"/>
<text class="value" x="841.1" y="210">136 / 143</text>
<text class="label" x="28" y="247">CVE + GHSA supported</text>
<rect class="bg" x="310" y="228" width="550" height="22" rx="3"/>
<rect x="310" y="228" width="550.0" height="22" rx="3" fill="#2878b5"/>
<text class="value" x="868.0" y="244">143 / 143</text>
</svg>